<svg width="278" height="50" viewBox="0 0 278 50" fill="none" xmlns="http://www.w3.org/2000/svg">
<path d="M239.661 3.38827C241.904 3.10873 244.051 2.915 246.097 2.81098C248.146 2.67056 249.896 2.60035 251.354 2.60035C254.819 2.60035 258.008 3.02032 260.921 3.86154C263.834 4.70147 266.394 6.20709 268.599 8.37841C270.608 10.4093 272.102 12.8784 273.087 15.7843C274.072 18.6551 274.563 21.7548 274.563 25.0807C274.563 28.3377 274.092 31.2969 273.146 33.9584C272.201 36.6186 270.744 38.8952 268.776 40.7857C266.848 42.6775 264.406 44.148 261.452 45.1986C258.5 46.2491 255.015 46.7744 250.999 46.7744C250.094 46.7744 248.617 46.7393 246.571 46.6691C244.562 46.5989 242.338 46.4416 239.898 46.1958C239.937 44.5849 239.957 43.0273 239.957 41.5216C239.996 39.9809 240.015 38.4753 240.015 37.0048C240.054 35.4991 240.075 33.9935 240.075 32.4866V27.8124C240.075 23.2253 240.035 18.8307 239.957 14.6284C239.917 10.4262 239.819 6.68036 239.661 3.38827ZM251.118 11.3194C250.725 11.3194 250.351 11.3377 249.996 11.3715C249.681 11.4066 249.367 11.4417 249.051 11.4768C249.011 13.1228 248.993 14.7689 248.993 16.4149V23.8728C249.032 24.783 249.051 25.7295 249.051 26.7098C249.09 27.6551 249.129 28.6172 249.169 29.5989C249.208 30.5441 249.228 31.4373 249.228 32.2773C249.582 32.3475 249.937 32.3995 250.291 32.4346H251.236C252.693 32.4346 254.031 32.155 255.252 31.5947C256.512 31.0343 257.595 30.2815 258.5 29.3362C259.445 28.3559 260.174 27.2169 260.685 25.9219C261.197 24.6256 261.452 23.2422 261.452 21.7717C261.452 20.686 261.276 19.5315 260.921 18.3054C260.607 17.0442 260.035 15.9065 259.209 14.8911C258.421 13.8756 257.359 13.0357 256.02 12.37C254.721 11.6692 253.087 11.3194 251.118 11.3194Z" fill="#161616"/>
<path fill-rule="evenodd" clip-rule="evenodd" d="M239.34 0.807419C237.992 0.976444 237.002 2.15572 237.066 3.51312C237.224 6.7753 237.32 10.4886 237.36 14.6532C237.36 14.661 237.36 14.6688 237.36 14.6766C237.438 18.8632 237.478 23.2422 237.478 27.8124V32.4866C237.478 33.9701 237.457 35.4536 237.42 36.9371C237.418 36.9592 237.418 36.9814 237.418 37.0048C237.418 38.4532 237.399 39.938 237.361 41.4553C237.36 41.4774 237.36 41.4995 237.36 41.5216C237.36 43.0064 237.34 44.5446 237.303 46.1334C237.269 47.4921 238.288 48.648 239.639 48.7832C242.141 49.0354 244.421 49.1954 246.48 49.2682C246.482 49.2682 246.482 49.2682 246.483 49.2682C248.569 49.3397 250.076 49.3748 250.999 49.3748C255.35 49.3748 259.123 48.7871 262.321 47.6481C265.657 46.4623 268.405 44.7864 270.583 42.6528C272.837 40.4854 274.51 37.8785 275.593 34.8295C276.632 31.9067 277.16 28.6575 277.16 25.0807C277.16 21.4532 276.619 18.074 275.543 14.9431C274.427 11.6471 272.723 8.8517 270.444 6.54777C270.437 6.53996 270.429 6.53216 270.42 6.52436C267.899 4.0423 264.97 2.32344 261.641 1.3626C258.508 0.458968 255.08 0 251.355 0C249.847 0 248.038 0.0715105 245.921 0.215832C243.842 0.322448 241.641 0.520077 239.34 0.807419ZM242.358 5.70134C243.687 5.57002 244.978 5.47121 246.23 5.4075C246.245 5.4062 246.259 5.4062 246.274 5.4049C248.254 5.26968 249.946 5.20077 251.355 5.20077C254.558 5.20077 257.508 5.58302 260.202 6.35924C262.69 7.07694 264.875 8.36413 266.761 10.2143C268.498 11.9748 269.778 14.111 270.627 16.6191C270.629 16.623 270.63 16.6256 270.631 16.6295C271.527 19.2389 271.966 22.0578 271.966 25.0807C271.966 28.0178 271.552 30.6871 270.7 33.086C269.894 35.3548 268.656 37.2973 266.978 38.9095C266.971 38.916 266.966 38.9225 266.959 38.9277C265.283 40.5725 263.151 41.835 260.584 42.7477H260.583C257.877 43.7111 254.68 44.174 250.999 44.174C250.112 44.174 248.666 44.1389 246.661 44.07C245.378 44.0258 244.004 43.9439 242.539 43.8256C242.549 43.0493 242.554 42.2861 242.554 41.5359C242.593 40.0082 242.612 38.4974 242.612 37.0204C242.651 35.5212 242.672 34.0039 242.672 32.4866V27.8124C242.672 23.2123 242.632 18.806 242.554 14.5921C242.523 11.3624 242.458 8.39794 242.358 5.70134ZM251.118 8.71909C250.635 8.71909 250.177 8.74119 249.742 8.7841L248.766 8.89201C247.474 9.03633 246.487 10.1129 246.456 11.4131C246.414 13.0799 246.396 14.7481 246.396 16.4149V23.8728C246.396 23.9105 246.397 23.9469 246.398 23.9846C246.436 24.8597 246.454 25.7672 246.454 26.7098C246.454 26.7449 246.456 26.7813 246.457 26.8165L246.575 29.7055C246.611 30.613 246.631 31.4698 246.631 32.2773C246.631 33.5189 247.507 34.5877 248.725 34.8282C249.162 34.914 249.599 34.9791 250.037 35.022C250.121 35.0311 250.207 35.035 250.291 35.035H251.236C253.08 35.035 254.771 34.6722 256.319 33.9649C257.891 33.2641 259.24 32.3189 260.371 31.1383C261.551 29.9148 262.462 28.495 263.1 26.8776C263.73 25.2835 264.05 23.5816 264.05 21.7717C264.05 20.4676 263.847 19.079 263.424 17.6072C263.021 16.021 262.29 14.5686 261.241 13.2711C260.237 11.9878 258.905 10.9073 257.215 10.0609C255.593 9.19626 253.566 8.71909 251.118 8.71909ZM251.604 13.929C252.861 13.9719 253.928 14.1955 254.789 14.6597C254.814 14.6727 254.84 14.687 254.866 14.7C255.823 15.1745 256.595 15.7609 257.159 16.4864C257.17 16.502 257.183 16.5176 257.195 16.5332C257.777 17.2483 258.181 18.048 258.403 18.9347C258.41 18.9659 258.418 18.9971 258.427 19.0283C258.708 19.9995 258.856 20.9123 258.856 21.7717C258.856 22.9042 258.664 23.969 258.27 24.965C257.886 25.9375 257.342 26.7931 256.632 27.5303C256.629 27.5316 256.628 27.5342 256.625 27.5368C255.95 28.2415 255.138 28.7992 254.198 29.2179C254.189 29.2218 254.18 29.2257 254.171 29.2296C253.432 29.569 252.634 29.7614 251.775 29.816L251.764 29.4909C251.725 28.5288 251.686 27.5836 251.648 26.6539C251.647 25.6645 251.627 24.7088 251.588 23.787C251.59 23.8195 251.59 21.2997 251.59 21.2997V16.4149C251.59 15.5854 251.595 14.7572 251.604 13.929Z" fill="#161616"/>
<path d="M239.661 3.38827C241.904 3.10873 244.051 2.915 246.097 2.81098C248.146 2.67056 249.896 2.60035 251.354 2.60035C254.819 2.60035 258.008 3.02032 260.921 3.86154C263.834 4.70147 266.394 6.20709 268.599 8.37841C270.608 10.4093 272.102 12.8784 273.087 15.7843C274.072 18.6551 274.563 21.7548 274.563 25.0807C274.563 28.3377 274.092 31.2969 273.146 33.9584C272.201 36.6186 270.744 38.8952 268.776 40.7857C266.848 42.6775 264.406 44.148 261.452 45.1986C258.5 46.2491 255.015 46.7744 250.999 46.7744C250.094 46.7744 248.617 46.7393 246.571 46.6691C244.562 46.5989 242.338 46.4416 239.898 46.1958C239.937 44.5849 239.957 43.0273 239.957 41.5216C239.996 39.9809 240.015 38.4753 240.015 37.0048C240.054 35.4991 240.075 33.9935 240.075 32.4866V27.8124C240.075 23.2253 240.035 18.8307 239.957 14.6284C239.917 10.4262 239.819 6.68036 239.661 3.38827ZM251.118 11.3194C250.725 11.3194 250.351 11.3377 249.996 11.3715C249.681 11.4066 249.367 11.4417 249.051 11.4768C249.011 13.1228 248.993 14.7689 248.993 16.4149V23.8728C249.032 24.783 249.051 25.7295 249.051 26.7098C249.09 27.6551 249.129 28.6172 249.169 29.5989C249.208 30.5441 249.228 31.4373 249.228 32.2773C249.582 32.3475 249.937 32.3995 250.291 32.4346H251.236C252.693 32.4346 254.031 32.155 255.252 31.5947C256.512 31.0343 257.595 30.2815 258.5 29.3362C259.445 28.3559 260.174 27.2169 260.685 25.9219C261.197 24.6256 261.452 23.2422 261.452 21.7717C261.452 20.686 261.276 19.5315 260.921 18.3054C260.607 17.0442 260.035 15.9065 259.209 14.8911C258.421 13.8756 257.359 13.0357 256.02 12.37C254.721 11.6692 253.087 11.3194 251.118 11.3194Z" fill="white"/>
<path d="M209.05 46.1959C209.155 42.87 209.225 39.561 209.26 36.2689C209.295 32.943 209.312 29.7913 209.312 26.8152C209.312 22.5778 209.277 18.5511 209.207 14.7338C209.172 10.9164 209.12 7.08212 209.05 3.23095C210.764 3.05542 212.476 2.915 214.19 2.81098C215.939 2.67056 217.705 2.60035 219.488 2.60035C222.041 2.60035 227.033 2.79278 229.272 3.17764C231.509 3.52869 233.45 4.21129 235.094 5.22674C236.738 6.20709 238.031 7.57229 238.975 9.32366C239.954 11.075 240.445 13.3335 240.445 16.099C240.445 19.5315 239.727 22.2268 238.294 24.1888C236.895 26.1495 233.691 27.62 231.278 28.6003L239.828 46.1959H230.491L223.515 30.1762C222.081 30.2815 219.296 30.3335 217.757 30.3335C217.757 33.0301 217.774 35.6734 217.809 38.2647C217.844 40.856 217.949 43.5005 218.125 46.1959H209.05ZM217.757 22.3503C218.841 22.4543 219.839 22.5076 220.748 22.5076C223.125 22.5076 226.102 22.0695 227.081 21.1944C228.095 20.2843 228.602 18.936 228.602 17.1495C228.602 16.0639 228.445 15.1888 228.131 14.5231C227.85 13.8587 227.449 13.3335 226.924 12.9473C226.435 12.5624 225.84 12.2998 225.14 12.1594C224.477 12.0203 223.759 11.95 222.99 11.95C222.43 11.95 220.502 11.9852 219.804 12.0554C219.139 12.0905 218.457 12.1594 217.757 12.2647V22.3503Z" fill="#161616"/>
<path fill-rule="evenodd" clip-rule="evenodd" d="M206.454 46.1139C206.432 46.8173 206.696 47.4999 207.185 48.0057C207.673 48.5115 208.347 48.7962 209.05 48.7962H218.125C218.843 48.7962 219.528 48.4985 220.019 47.9745C220.511 47.4492 220.763 46.7445 220.716 46.0268C220.544 43.377 220.44 40.7779 220.406 38.2295C220.383 36.4782 220.367 34.7021 220.359 32.9027C220.862 32.891 221.369 32.8767 221.851 32.861C221.85 32.861 228.111 47.236 228.111 47.236C228.524 48.1838 229.459 48.7962 230.491 48.7962H239.828C240.723 48.7962 241.555 48.3346 242.03 47.5753C242.504 46.816 242.555 45.8643 242.163 45.0581L234.785 29.8745C236.991 28.7797 239.215 27.3612 240.397 25.7139C242.102 23.3762 243.042 20.1868 243.042 16.099C243.042 12.8186 242.409 10.1506 241.251 8.07159C240.08 5.90547 238.473 4.21782 236.438 3.00214C234.531 1.82677 232.285 1.02065 229.694 0.61239C227.345 0.211931 222.149 0 219.488 0C217.635 0 215.8 0.0728107 213.984 0.218432C212.267 0.323748 210.527 0.465469 208.786 0.643595C207.442 0.781415 206.428 1.92558 206.453 3.27778C206.523 7.12245 206.575 10.9489 206.61 14.7572C206.61 14.765 206.61 14.7741 206.61 14.7819C206.68 18.5836 206.715 22.5947 206.715 26.8152C206.715 29.7822 206.698 32.9248 206.663 36.2415C206.628 39.5154 206.559 42.8062 206.454 46.1139ZM211.723 43.5954C211.787 41.1537 211.831 38.7197 211.857 36.2962C211.892 32.9599 211.909 29.7991 211.909 26.8152C211.909 22.5648 211.874 18.5264 211.804 14.6974C211.775 11.6757 211.738 8.64237 211.688 5.59733C212.575 5.52451 213.462 5.46081 214.349 5.4062C214.366 5.4049 214.381 5.4036 214.397 5.4023C216.078 5.26838 217.775 5.20077 219.488 5.20077C221.925 5.20077 226.694 5.37369 228.832 5.74035C228.845 5.74295 228.858 5.74555 228.871 5.74685C230.736 6.03939 232.36 6.59327 233.731 7.4397C233.742 7.4462 233.754 7.454 233.766 7.4605C235.006 8.20161 235.977 9.23656 236.69 10.5589C236.696 10.5706 236.703 10.5823 236.709 10.594C237.503 12.0138 237.848 13.8561 237.848 16.099C237.848 18.8697 237.355 21.0696 236.198 22.6519C236.193 22.661 236.186 22.6688 236.18 22.6766C235.024 24.298 232.295 25.381 230.301 26.1911C229.635 26.4615 229.111 26.9972 228.854 27.6694C228.595 28.3416 228.628 29.0905 228.943 29.738L235.677 43.5954H232.192L225.895 29.136C225.454 28.1244 224.425 27.5017 223.325 27.5823C221.938 27.6837 219.245 27.7331 217.757 27.7331C216.322 27.7331 215.16 28.8981 215.16 30.3335C215.16 33.0418 215.177 35.6968 215.212 38.2998C215.236 40.042 215.29 41.8077 215.377 43.5954H211.723ZM215.16 22.3503C215.16 23.6895 216.176 24.809 217.507 24.9377C218.682 25.0521 219.762 25.108 220.748 25.108C222.673 25.108 224.936 24.8402 226.51 24.3448C227.516 24.0275 228.304 23.5868 228.811 23.1343C228.812 23.133 228.813 23.1317 228.815 23.1304C230.326 21.773 231.199 19.811 231.199 17.1495C231.199 15.6296 230.936 14.4061 230.503 13.4635C230.033 12.3713 229.355 11.5171 228.493 10.8748C227.712 10.2689 226.772 9.83725 225.662 9.61232C224.836 9.43939 223.944 9.34968 222.99 9.34968C222.399 9.34968 220.402 9.38999 219.604 9.4615C218.892 9.5005 218.142 9.57721 217.372 9.69293C216.1 9.88406 215.16 10.9775 215.16 12.2647V22.3503ZM225.404 19.2025C225.292 19.248 224.829 19.4288 224.501 19.5081C223.386 19.7785 221.973 19.9072 220.748 19.9072L220.354 19.9033V14.6194C221.131 14.5713 222.541 14.5504 222.99 14.5504C223.566 14.5504 224.107 14.5999 224.604 14.7039C224.613 14.7065 224.622 14.7078 224.631 14.7104C224.899 14.7637 225.132 14.8456 225.319 14.9925C225.343 15.0107 225.365 15.0276 225.388 15.0445C225.548 15.1615 225.653 15.3332 225.737 15.5347C225.752 15.5685 225.767 15.6023 225.783 15.6348C225.963 16.0171 226.005 16.5267 226.005 17.1495C226.005 18.0285 225.876 18.7371 225.404 19.2025Z" fill="#161616"/>
<path d="M209.05 46.1959C209.155 42.87 209.225 39.561 209.26 36.2689C209.295 32.943 209.312 29.7913 209.312 26.8152C209.312 22.5778 209.277 18.5511 209.207 14.7338C209.172 10.9164 209.12 7.08212 209.05 3.23095C210.764 3.05542 212.476 2.915 214.19 2.81098C215.939 2.67056 217.705 2.60035 219.488 2.60035C222.041 2.60035 227.033 2.79278 229.272 3.17764C231.509 3.52869 233.45 4.21129 235.094 5.22674C236.738 6.20709 238.031 7.57229 238.975 9.32366C239.954 11.075 240.445 13.3335 240.445 16.099C240.445 19.5315 239.727 22.2268 238.294 24.1888C236.895 26.1495 233.691 27.62 231.278 28.6003L239.828 46.1959H230.491L223.515 30.1762C222.081 30.2815 219.296 30.3335 217.757 30.3335C217.757 33.0301 217.774 35.6734 217.809 38.2647C217.844 40.856 217.949 43.5005 218.125 46.1959H209.05ZM217.757 22.3503C218.841 22.4543 219.839 22.5076 220.748 22.5076C223.125 22.5076 226.102 22.0695 227.081 21.1944C228.095 20.2843 228.602 18.936 228.602 17.1495C228.602 16.0639 228.445 15.1888 228.131 14.5231C227.85 13.8587 227.449 13.3335 226.924 12.9473C226.435 12.5624 225.84 12.2998 225.14 12.1594C224.477 12.0203 223.759 11.95 222.99 11.95C222.43 11.95 220.502 11.9852 219.804 12.0554C219.139 12.0905 218.457 12.1594 217.757 12.2647V22.3503Z" fill="white"/>
<path d="M194.89 2.60035C200.101 2.60035 203.948 4.45573 206.431 8.16778C208.914 11.8798 210.155 17.273 210.155 24.3461C210.155 31.5245 208.932 37.0568 206.483 40.9444C204.07 44.8306 200.206 46.7744 194.89 46.7744C192.269 46.7744 189.995 46.2842 188.072 45.3039C186.148 44.2884 184.557 42.8348 183.299 40.9444C182.04 39.0175 181.112 36.6719 180.518 33.9051C179.924 31.1045 179.627 27.9177 179.627 24.3461C179.627 17.1677 180.868 11.7576 183.351 8.11577C185.834 4.43883 189.681 2.60035 194.89 2.60035ZM194.89 33.2225C196.01 33.2225 196.989 32.9768 197.829 32.4866C198.703 31.9626 199.419 31.2618 199.979 30.3868C200.539 29.4753 200.958 28.4079 201.238 27.1818C201.518 25.9219 201.658 24.5385 201.658 23.0329C201.658 21.5273 201.518 20.1439 201.238 18.8827C200.958 17.5877 200.539 16.4669 199.979 15.5217C199.419 14.5764 198.703 13.8405 197.829 13.3152C196.989 12.79 196.01 12.5273 194.89 12.5273C193.772 12.5273 192.793 12.8082 191.953 13.3686C191.149 13.8938 190.45 14.6284 189.855 15.5737C189.295 16.5202 188.876 17.6397 188.597 18.936C188.316 20.1959 188.177 21.5624 188.177 23.0329C188.177 24.5385 188.316 25.9219 188.597 27.1818C188.876 28.4079 189.295 29.4753 189.855 30.3868C190.45 31.2618 191.149 31.9626 191.953 32.4866C192.793 32.9768 193.772 33.2225 194.89 33.2225Z" fill="#161616"/>
<path fill-rule="evenodd" clip-rule="evenodd" d="M194.89 0C188.689 0 184.155 2.28184 181.199 6.65958C178.495 10.6265 177.03 16.5072 177.03 24.3461C177.03 28.1192 177.351 31.4854 177.978 34.4447C177.978 34.4473 177.978 34.4499 177.979 34.4525C178.648 37.5664 179.709 40.2006 181.127 42.368C181.131 42.3745 181.135 42.3797 181.138 42.3849C182.646 44.6512 184.556 46.3869 186.862 47.6039C186.872 47.6091 186.883 47.6156 186.894 47.6208C189.151 48.7715 191.813 49.3748 194.89 49.3748C201.238 49.3748 205.805 46.959 208.688 42.3186C211.339 38.1034 212.752 32.1251 212.752 24.3461C212.752 16.6295 211.297 10.7708 208.589 6.72069C205.632 2.30134 201.096 0 194.89 0ZM194.89 5.20077C199.108 5.20077 202.264 6.61147 204.273 9.61492C206.531 12.9902 207.558 17.9153 207.558 24.3461C207.558 30.916 206.528 35.9984 204.287 39.5557C204.283 39.5609 204.281 39.5661 204.277 39.5713C202.333 42.7022 199.173 44.174 194.89 44.174C192.731 44.174 190.852 43.7983 189.267 42.9934C187.733 42.1821 186.47 41.0171 185.466 39.5102C184.368 37.8291 183.577 35.7748 183.058 33.3616C182.498 30.7196 182.224 27.7136 182.224 24.3461C182.224 17.8269 183.241 12.8888 185.496 9.58111C185.499 9.57851 185.5 9.57461 185.503 9.57201C187.513 6.59457 190.672 5.20077 194.89 5.20077ZM194.89 35.8229C196.509 35.8229 197.921 35.4432 199.136 34.7333C199.145 34.7281 199.156 34.7229 199.165 34.7164C200.384 33.9844 201.385 33.0093 202.165 31.7884C202.175 31.7754 202.182 31.7624 202.19 31.7494C202.887 30.6156 203.42 29.2894 203.769 27.763C203.772 27.7565 203.773 27.7513 203.774 27.7448C204.091 26.3133 204.255 24.7426 204.255 23.0329C204.255 21.3244 204.091 19.7551 203.774 18.3236C203.429 16.7322 202.902 15.3579 202.214 14.1955C201.425 12.8654 200.41 11.8382 199.184 11.0971C197.953 10.3326 196.526 9.92696 194.89 9.92696C193.23 9.92696 191.782 10.3638 190.533 11.1908C189.437 11.9085 188.468 12.8992 187.658 14.1877C187.645 14.2085 187.633 14.228 187.62 14.2488C186.932 15.4112 186.405 16.7855 186.061 18.3782C185.743 19.811 185.58 21.3622 185.58 23.0329C185.58 24.7439 185.743 26.3146 186.062 27.7474C186.063 27.7513 186.063 27.7565 186.065 27.7604C186.413 29.2881 186.946 30.6143 187.644 31.7494C187.664 31.7832 187.685 31.8157 187.707 31.8482C188.507 33.0249 189.454 33.9597 190.534 34.6644C190.57 34.6891 190.608 34.7112 190.646 34.7333C191.861 35.4432 193.272 35.8229 194.89 35.8229ZM194.89 30.6221C194.299 30.6221 193.774 30.5207 193.323 30.275C192.827 29.9395 192.406 29.5066 192.04 28.98C191.63 28.2974 191.335 27.5069 191.13 26.6097C190.888 25.5228 190.774 24.3305 190.774 23.0329C190.774 21.7652 190.89 20.5872 191.131 19.5016C191.133 19.4951 191.134 19.4899 191.135 19.4847C191.344 18.5147 191.644 17.6683 192.057 16.9545C192.444 16.3434 192.87 15.874 193.372 15.5451C193.379 15.5412 193.387 15.5373 193.393 15.5321C193.819 15.2473 194.323 15.1277 194.89 15.1277C195.484 15.1277 196.008 15.2434 196.454 15.5217C196.467 15.5295 196.48 15.5373 196.493 15.5451C197.004 15.8532 197.417 16.2927 197.744 16.8479C198.175 17.5734 198.484 18.4393 198.7 19.434C198.701 19.4379 198.703 19.4418 198.703 19.4457C198.944 20.5352 199.061 21.7314 199.061 23.0329C199.061 24.3305 198.945 25.5228 198.705 26.6084C198.497 27.5173 198.197 28.3143 197.786 28.993C197.448 29.5157 197.028 29.9304 196.516 30.2425C196.046 30.5142 195.503 30.6221 194.89 30.6221Z" fill="#161616"/>
<path d="M194.89 2.60035C200.101 2.60035 203.948 4.45573 206.431 8.16778C208.914 11.8798 210.155 17.273 210.155 24.3461C210.155 31.5245 208.932 37.0568 206.483 40.9444C204.07 44.8306 200.206 46.7744 194.89 46.7744C192.269 46.7744 189.995 46.2842 188.072 45.3039C186.148 44.2884 184.557 42.8348 183.299 40.9444C182.04 39.0175 181.112 36.6719 180.518 33.9051C179.924 31.1045 179.627 27.9177 179.627 24.3461C179.627 17.1677 180.868 11.7576 183.351 8.11577C185.834 4.43883 189.681 2.60035 194.89 2.60035ZM194.89 33.2225C196.01 33.2225 196.989 32.9768 197.829 32.4866C198.703 31.9626 199.419 31.2618 199.979 30.3868C200.539 29.4753 200.958 28.4079 201.238 27.1818C201.518 25.9219 201.658 24.5385 201.658 23.0329C201.658 21.5273 201.518 20.1439 201.238 18.8827C200.958 17.5877 200.539 16.4669 199.979 15.5217C199.419 14.5764 198.703 13.8405 197.829 13.3152C196.989 12.79 196.01 12.5273 194.89 12.5273C193.772 12.5273 192.793 12.8082 191.953 13.3686C191.149 13.8938 190.45 14.6284 189.855 15.5737C189.295 16.5202 188.876 17.6397 188.597 18.936C188.316 20.1959 188.177 21.5624 188.177 23.0329C188.177 24.5385 188.316 25.9219 188.597 27.1818C188.876 28.4079 189.295 29.4753 189.855 30.3868C190.45 31.2618 191.149 31.9626 191.953 32.4866C192.793 32.9768 193.772 33.2225 194.89 33.2225Z" fill="white"/>
<path d="M173.778 3.23099H182.485L176.085 46.1959H165.752L161.188 23.1903L156.625 46.1959H146.553L139.944 3.23099H148.651L151.956 32.5919L157.937 3.59895L164.651 3.283L170.578 32.5919L173.778 3.23099Z" fill="#161616"/>
<path fill-rule="evenodd" clip-rule="evenodd" d="M173.778 0.630516C172.452 0.630516 171.34 1.62907 171.196 2.94876L169.808 15.6842L167.196 2.76674C166.941 1.50945 165.809 0.625315 164.529 0.685124L157.814 1.00107C156.63 1.05698 155.633 1.90861 155.393 3.07228L152.71 16.0781L151.231 2.93966C151.083 1.62386 149.973 0.630516 148.651 0.630516H139.944C139.186 0.630516 138.466 0.962065 137.973 1.53805C137.479 2.11404 137.261 2.87725 137.377 3.62616L143.986 46.5924C144.182 47.8601 145.271 48.7962 146.553 48.7962H156.625C157.864 48.7962 158.931 47.9199 159.173 46.7029L161.188 36.538L163.204 46.7029C163.446 47.9199 164.513 48.7962 165.752 48.7962H176.085C177.372 48.7962 178.464 47.8536 178.653 46.5794L185.053 3.61446C185.165 2.86555 184.946 2.10624 184.452 1.53285C183.959 0.959465 183.241 0.630516 182.485 0.630516H173.778ZM176.107 5.83129H179.473L173.846 43.5954H167.884L163.735 22.6831C163.494 21.4661 162.427 20.5898 161.188 20.5898C159.949 20.5898 158.882 21.4661 158.64 22.6844L154.493 43.5954H148.781L142.972 5.83129H146.331L149.376 32.8831C149.519 34.1534 150.561 35.1312 151.838 35.1897C153.113 35.2482 154.241 34.3706 154.499 33.1185L160.072 6.10173L162.547 5.98472L168.033 33.1081C168.286 34.3654 169.417 35.2482 170.696 35.1897C171.975 35.1312 173.021 34.1482 173.159 32.874L176.107 5.83129Z" fill="#161616"/>
<path d="M173.778 3.23099H182.485L176.085 46.1959H165.752L161.188 23.1903L156.625 46.1959H146.553L139.944 3.23099H148.651L151.956 32.5919L157.937 3.59895L164.651 3.283L170.578 32.5919L173.778 3.23099Z" fill="white"/>
<path d="M139.799 3.23099C139.693 5.43742 139.605 7.52033 139.536 9.48102C139.501 11.4417 139.466 13.3855 139.431 15.3111C139.396 17.2029 139.361 19.1285 139.326 21.0891V35.7436C139.361 38.79 139.396 42.2745 139.431 46.1959H130.724C130.794 44.0948 130.846 41.9065 130.881 39.6312C130.916 37.3195 130.951 33.3929 130.986 30.4518H120.626V38.4233C120.661 40.7689 120.696 43.3601 120.73 46.1959H112.022C112.057 44.6551 112.092 43.0806 112.127 41.4697C112.162 39.8587 112.197 38.1256 112.232 36.2689C112.268 34.4135 112.284 32.3826 112.284 30.1762V16.6776C112.284 14.9262 112.268 13.3335 112.232 11.8981V3.23099H121.097C120.958 6.13692 120.853 8.83352 120.783 11.3195C120.713 13.7704 120.661 17.5578 120.626 20.0789H130.986V14.4192C130.986 13.0878 130.968 11.8279 130.933 10.6369V3.23099H139.799Z" fill="#161616"/>
<path fill-rule="evenodd" clip-rule="evenodd" d="M142.393 3.35442C142.427 2.64452 142.168 1.95151 141.679 1.43664C141.188 0.921759 140.509 0.630516 139.799 0.630516H130.933C129.498 0.630516 128.336 1.79419 128.336 3.23091V10.6368C128.336 10.6628 128.336 10.6875 128.337 10.7135C128.371 11.8798 128.389 13.115 128.389 14.4191V17.4784H123.259C123.291 15.3825 123.33 13.0734 123.378 11.3935C123.449 8.92316 123.552 6.24346 123.691 3.35572C123.725 2.64582 123.468 1.95151 122.977 1.43664C122.488 0.921759 121.807 0.630516 121.097 0.630516H112.233C110.798 0.630516 109.636 1.79419 109.636 3.23091V11.898C109.636 11.9188 109.636 11.9396 109.637 11.9604C109.671 13.3776 109.688 14.9496 109.688 16.6775V30.1761C109.688 32.3644 109.671 34.3797 109.636 36.2194C109.601 38.0735 109.567 39.8041 109.532 41.4124C109.497 43.0221 109.462 44.5979 109.427 46.1373C109.411 46.8368 109.677 47.5142 110.165 48.0135C110.655 48.5141 111.324 48.7962 112.022 48.7962H120.73C121.424 48.7962 122.09 48.518 122.577 48.0239C123.065 47.5285 123.336 46.8589 123.326 46.1646C123.291 43.3328 123.258 40.7467 123.223 38.4038V33.0522H128.361C128.335 35.4211 128.31 37.9253 128.284 39.5908C128.249 41.8506 128.198 44.0232 128.128 46.11C128.105 46.8134 128.368 47.4973 128.857 48.0044C129.346 48.5102 130.02 48.7962 130.724 48.7962H139.431C140.124 48.7962 140.788 48.5193 141.276 48.0265C141.763 47.5337 142.034 46.8667 142.028 46.1724C141.993 42.2549 141.958 38.7743 141.923 35.7293V21.1125L142.028 15.3591C142.063 13.44 142.097 11.504 142.132 9.55115C142.201 7.60606 142.288 5.54135 142.393 3.35442ZM137.081 5.83129C137.028 7.05868 136.981 8.24576 136.941 9.38993L136.729 21.0891V35.7735C136.756 38.1216 136.784 40.7285 136.811 43.5954H133.397C133.431 42.3174 133.457 41.0094 133.478 39.6715C133.478 39.6702 133.478 39.6702 133.478 39.6702C133.513 37.3571 133.548 33.4266 133.583 30.483C133.591 29.7874 133.321 29.1178 132.834 28.6237C132.345 28.1296 131.681 27.8514 130.986 27.8514H120.626C119.191 27.8514 118.029 29.0151 118.029 30.4518V38.461C118.052 40.0589 118.077 41.7713 118.1 43.5954H114.679L114.724 41.5255C114.759 39.912 114.794 38.1762 114.829 36.3183C114.864 34.4473 114.881 32.3995 114.881 30.1761V16.6775C114.881 14.908 114.864 13.2983 114.829 11.8473C114.829 11.8668 114.829 7.74778 114.829 7.74778V5.83129H118.379C118.299 7.73478 118.235 9.53945 118.187 11.2453C118.117 13.7079 118.064 17.5096 118.029 20.0424C118.018 20.738 118.288 21.4089 118.777 21.9043C119.264 22.3997 119.93 22.6792 120.626 22.6792H130.986C132.421 22.6792 133.583 21.5142 133.583 20.0788V14.4191C133.583 13.0708 133.565 11.7927 133.53 10.5861C133.53 10.6004 133.53 7.06518 133.53 7.06518V5.83129H137.081Z" fill="#161616"/>
<path d="M139.799 3.23099C139.693 5.43742 139.605 7.52033 139.536 9.48102C139.501 11.4417 139.466 13.3855 139.431 15.3111C139.396 17.2029 139.361 19.1285 139.326 21.0891V35.7436C139.361 38.79 139.396 42.2745 139.431 46.1959H130.724C130.794 44.0948 130.846 41.9065 130.881 39.6312C130.916 37.3195 130.951 33.3929 130.986 30.4518H120.626V38.4233C120.661 40.7689 120.696 43.3601 120.73 46.1959H112.022C112.057 44.6551 112.092 43.0806 112.127 41.4697C112.162 39.8587 112.197 38.1256 112.232 36.2689C112.268 34.4135 112.284 32.3826 112.284 30.1762V16.6776C112.284 14.9262 112.268 13.3335 112.232 11.8981V3.23099H121.097C120.958 6.13692 120.853 8.83352 120.783 11.3195C120.713 13.7704 120.661 17.5578 120.626 20.0789H130.986V14.4192C130.986 13.0878 130.968 11.8279 130.933 10.6369V3.23099H139.799Z" fill="white"/>
<path d="M89.7447 13.8938C89.7447 11.6523 90.1654 9.81383 91.0042 8.37841C91.878 6.90789 92.9623 5.75202 94.2568 4.9121C95.5851 4.03577 97.0368 3.44028 98.6105 3.12563C100.219 2.77588 101.758 2.60035 103.226 2.60035C103.646 2.60035 104.17 2.61726 104.8 2.65236C105.464 2.68747 106.147 2.74077 106.845 2.81098C107.58 2.87989 108.314 2.98521 109.049 3.12563C109.817 3.23095 110.534 3.38827 111.199 3.5989C111.269 4.50904 111.321 5.36716 111.356 6.17198C111.391 6.943 111.409 7.83493 111.409 8.85038C111.409 9.86583 111.391 10.8462 111.356 11.7927C111.321 12.7029 111.269 13.5779 111.199 14.4178C110.92 14.384 110.552 14.3307 110.098 14.2605C109.678 14.1916 109.224 14.1383 108.733 14.1032C108.279 14.0681 107.807 14.033 107.318 13.9978C106.863 13.9627 106.426 13.9458 106.006 13.9458C104.328 13.9458 103.103 14.2085 102.334 14.7338C101.564 15.259 101.18 15.9767 101.18 16.8869C101.18 17.4122 101.302 17.9205 101.548 18.4107C101.792 18.8658 102.107 19.3039 102.492 19.7239C102.911 20.1439 103.365 20.5469 103.855 20.9318C104.379 21.3166 104.904 21.6846 105.429 22.0343C106.269 22.6298 107.108 23.2955 107.946 24.0301C108.821 24.7309 109.608 25.5891 110.307 26.6045C111.007 27.5849 111.583 28.7407 112.039 30.0708C112.493 31.3671 112.721 32.8728 112.721 34.5877C112.721 36.8292 112.335 38.7197 111.566 40.2605C110.796 41.8012 109.8 43.0624 108.576 44.0427C107.388 44.988 106.041 45.6888 104.538 46.1438C103.069 46.5638 101.599 46.7744 100.131 46.7744C99.4674 46.7744 98.6455 46.7211 97.6665 46.6158C96.7212 46.5469 95.7604 46.4234 94.7814 46.2491C93.8023 46.1087 92.8753 45.9332 92.0014 45.7239C91.1262 45.4781 90.4277 45.1986 89.9031 44.8826C89.7629 44.2533 89.6408 43.6045 89.5356 42.9402C89.4655 42.2745 89.4305 41.5385 89.4305 40.7337C89.4305 40.1733 89.4474 39.4907 89.4824 38.6846C89.5525 37.8798 89.6226 37.0568 89.6928 36.2169C89.7629 35.3756 89.833 34.5708 89.9031 33.7998C90.007 33.0301 90.0953 32.3826 90.1654 31.8573C90.5497 32.0666 91.1094 32.3124 91.843 32.5919C92.5779 32.8376 93.3648 33.0821 94.2036 33.3278C95.0787 33.5723 95.9526 33.7829 96.8264 33.9584C97.7003 34.1326 98.4703 34.2211 99.1351 34.2211C100.253 34.2211 101.093 33.9935 101.653 33.5372C102.212 33.047 102.492 32.3995 102.492 31.5947C102.492 30.7183 102.177 29.9486 101.548 29.2829C100.918 28.5834 100.131 27.8995 99.187 27.2351C98.243 26.5694 97.2108 25.8686 96.0928 25.134C95.0086 24.363 93.9945 23.4711 93.0492 22.4543C92.1053 21.4389 91.3184 20.2492 90.69 18.8827C90.0602 17.4824 89.7447 15.8194 89.7447 13.8938Z" fill="#161616"/>
<path fill-rule="evenodd" clip-rule="evenodd" d="M99.8947 31.5869C99.7051 31.6558 99.4428 31.6207 99.1351 31.6207C98.617 31.6207 98.0171 31.544 97.3354 31.4074C96.5291 31.2462 95.7228 31.0525 94.9164 30.8262C94.1413 30.6 93.4141 30.3738 92.7325 30.1475C92.1482 29.9252 91.7106 29.7393 91.408 29.5742C90.6575 29.1633 89.7525 29.1503 88.9903 29.5378C88.2268 29.9252 87.7036 30.6637 87.5906 31.5127C87.5205 32.0367 87.4335 32.6816 87.3296 33.4487C87.3244 33.4877 87.3205 33.5254 87.3166 33.5645C87.2452 34.342 87.1751 35.1533 87.105 36.001C87.0349 36.8383 86.966 37.6575 86.8959 38.4597C86.892 38.4974 86.8907 38.5351 86.8881 38.5728C86.8518 39.4218 86.8336 40.1421 86.8336 40.7337C86.8336 41.6386 86.8739 42.4643 86.9531 43.2119C86.957 43.2561 86.9635 43.3016 86.97 43.3458C87.0842 44.0648 87.2167 44.7656 87.3673 45.4482C87.5218 46.1438 87.9555 46.7458 88.567 47.1124C89.2513 47.5246 90.1589 47.9069 91.3003 48.228C91.3314 48.2358 91.3626 48.2449 91.3951 48.2514C92.3377 48.4789 93.3362 48.6688 94.3906 48.8196C95.4176 49.0029 96.4473 49.1329 97.4588 49.2084C98.5015 49.3202 99.4013 49.3748 100.131 49.3748C101.837 49.3748 103.545 49.1316 105.251 48.6441C105.264 48.6402 105.277 48.6363 105.288 48.6324C107.114 48.0798 108.748 47.2269 110.191 46.0788C110.194 46.0775 110.197 46.0749 110.199 46.0736C111.705 44.8657 112.941 43.3211 113.889 41.4241C114.816 39.5648 115.318 37.2921 115.318 34.5877C115.318 32.5503 115.032 30.7625 114.493 29.2231C113.953 27.6447 113.262 26.2769 112.434 25.1106C111.595 23.8975 110.65 22.8717 109.606 22.0291C108.732 21.2646 107.831 20.5508 106.931 19.9124C106.91 19.8981 106.889 19.8851 106.87 19.8708C106.397 19.5562 105.926 19.2259 105.453 18.8801C105.055 18.5654 104.705 18.2586 104.381 17.9374C104.168 17.7008 103.999 17.472 103.864 17.2327C103.806 17.1092 103.777 17 103.777 16.8869C103.777 16.8791 103.791 16.8869 103.798 16.8817C104.255 16.5696 105.008 16.5462 106.006 16.5462C106.362 16.5462 106.732 16.5618 107.118 16.5904L108.549 16.6971C108.951 16.7257 109.325 16.7686 109.671 16.8258L110.877 16.9987C111.579 17.0871 112.286 16.8843 112.835 16.4383C113.384 15.9911 113.728 15.341 113.787 14.635C113.86 13.7573 113.915 12.8433 113.952 11.8916C113.952 11.8916 113.952 11.8903 113.952 11.889C113.988 10.9125 114.006 9.89966 114.006 8.8504C114.006 7.79075 113.987 6.85851 113.95 6.05499C113.914 5.22287 113.861 4.33744 113.788 3.3987C113.708 2.34035 112.992 1.43801 111.981 1.11816C111.203 0.872429 110.365 0.685201 109.467 0.557782C108.692 0.412161 107.894 0.299044 107.098 0.222333C106.358 0.148222 105.638 0.0936138 104.937 0.0559082C104.256 0.0182027 103.684 0 103.227 0C101.588 0 99.8713 0.191128 98.0769 0.579886C96.1811 0.963442 94.4308 1.68375 92.8285 2.7395C91.2275 3.77966 89.8642 5.21247 88.7722 7.04834C88.7696 7.05354 88.7657 7.05874 88.7631 7.06394C87.7217 8.8452 87.1478 11.114 87.1478 13.8938C87.1478 16.2329 87.5569 18.2482 88.3216 19.9501C88.3242 19.9579 88.3281 19.9657 88.332 19.9735C89.0812 21.6001 90.0239 23.016 91.1496 24.2265C92.217 25.3745 93.3635 26.3835 94.5892 27.2546C94.6152 27.2728 94.6412 27.2897 94.6671 27.3079C95.7617 28.0269 96.7693 28.7108 97.6925 29.3609C98.4612 29.9031 99.1052 30.4531 99.6168 31.0226C99.6324 31.0395 99.6467 31.0551 99.6623 31.072C99.8051 31.2215 99.8921 31.3892 99.8947 31.5869ZM108.768 11.4989L107.505 11.4053C106.986 11.365 106.486 11.3455 106.006 11.3455C103.645 11.3455 101.954 11.846 100.871 12.5846C99.3377 13.6325 98.5833 15.0718 98.5833 16.8869C98.5833 17.8126 98.7936 18.7085 99.2247 19.5731C99.2364 19.5965 99.2481 19.6199 99.261 19.6433C99.6025 20.2791 100.04 20.8928 100.578 21.4805C100.602 21.5091 100.628 21.5351 100.656 21.5624C101.146 22.0539 101.677 22.5258 102.251 22.9757C102.273 22.9939 102.297 23.0121 102.32 23.029C102.875 23.436 103.43 23.8247 103.985 24.1953C104.716 24.7166 105.475 25.3212 106.236 25.9882C106.266 26.0129 106.295 26.0376 106.325 26.061C107.01 26.6097 107.622 27.2858 108.17 28.0802C108.177 28.0919 108.187 28.1036 108.194 28.1153C108.758 28.9059 109.215 29.8407 109.581 30.9121C109.584 30.9199 109.586 30.9264 109.589 30.9329C109.956 31.9808 110.124 33.2004 110.124 34.5877C110.124 36.3664 109.854 37.8746 109.244 39.0981C108.653 40.2812 107.897 41.2564 106.957 42.0092C106.031 42.7451 104.982 43.2886 103.812 43.6461C102.58 43.9972 101.355 44.174 100.131 44.174C99.5415 44.174 98.8118 44.1246 97.9431 44.031C97.9146 44.0284 97.886 44.0258 97.8574 44.0232C97.0005 43.9595 96.1266 43.8477 95.2372 43.689C95.2073 43.6838 95.1774 43.6786 95.1476 43.6747C94.2776 43.5499 93.4531 43.3952 92.674 43.2106C92.4909 43.1599 92.3351 43.1131 92.1897 43.065C92.1624 42.9167 92.1378 42.7672 92.1144 42.6177C92.0547 42.0352 92.0274 41.4124 92.0274 40.7337C92.0274 40.2201 92.043 39.5973 92.0741 38.8653L92.3611 35.4887C92.7221 35.6005 93.0947 35.7124 93.4765 35.8242C93.4856 35.8268 93.4946 35.8294 93.5037 35.832C94.4412 36.0946 95.38 36.3196 96.3175 36.5081C97.3848 36.7213 98.3236 36.8214 99.1351 36.8214C100.997 36.8214 102.358 36.3144 103.29 35.5563C103.315 35.5355 103.338 35.516 103.363 35.4939C104.49 34.5071 105.088 33.2173 105.088 31.5947C105.088 30.0539 104.555 28.6913 103.455 27.5186C102.716 26.6994 101.793 25.8907 100.682 25.108C99.7259 24.4345 98.6832 23.7259 97.5523 22.9835C96.6317 22.3243 95.7617 21.5559 94.9502 20.6834C94.1919 19.8669 93.5635 18.91 93.0571 17.8152C92.5624 16.7088 92.3416 15.4008 92.3416 13.8938C92.3416 12.1945 92.6065 10.7877 93.2414 9.69813C93.8972 8.59817 94.6996 7.72314 95.6695 7.09255C95.6747 7.08994 95.6786 7.08734 95.6838 7.08344C96.7317 6.39304 97.8782 5.92367 99.1195 5.67534C99.1338 5.67274 99.1481 5.67014 99.1611 5.66624C100.578 5.35809 101.933 5.20077 103.227 5.20077C103.607 5.20077 104.083 5.21767 104.656 5.24887C104.659 5.24887 104.661 5.25017 104.663 5.25017C105.288 5.28268 105.93 5.33209 106.587 5.3984C106.591 5.3984 106.595 5.3984 106.599 5.3997C107.254 5.46211 107.909 5.55572 108.563 5.68054L108.735 5.70784L108.762 6.29033C108.796 7.02624 108.812 7.88046 108.812 8.8504C108.812 9.76314 108.798 10.6447 108.768 11.4989Z" fill="#161616"/>
<path d="M89.7447 13.8938C89.7447 11.6523 90.1654 9.81383 91.0042 8.37841C91.878 6.90789 92.9623 5.75202 94.2568 4.9121C95.5851 4.03577 97.0368 3.44028 98.6105 3.12563C100.219 2.77588 101.758 2.60035 103.226 2.60035C103.646 2.60035 104.17 2.61726 104.8 2.65236C105.464 2.68747 106.147 2.74077 106.845 2.81098C107.58 2.87989 108.314 2.98521 109.049 3.12563C109.817 3.23095 110.534 3.38827 111.199 3.5989C111.269 4.50904 111.321 5.36716 111.356 6.17198C111.391 6.943 111.409 7.83493 111.409 8.85038C111.409 9.86583 111.391 10.8462 111.356 11.7927C111.321 12.7029 111.269 13.5779 111.199 14.4178C110.92 14.384 110.552 14.3307 110.098 14.2605C109.678 14.1916 109.224 14.1383 108.733 14.1032C108.279 14.0681 107.807 14.033 107.318 13.9978C106.863 13.9627 106.426 13.9458 106.006 13.9458C104.328 13.9458 103.103 14.2085 102.334 14.7338C101.564 15.259 101.18 15.9767 101.18 16.8869C101.18 17.4122 101.302 17.9205 101.548 18.4107C101.792 18.8658 102.107 19.3039 102.492 19.7239C102.911 20.1439 103.365 20.5469 103.855 20.9318C104.379 21.3166 104.904 21.6846 105.429 22.0343C106.269 22.6298 107.108 23.2955 107.946 24.0301C108.821 24.7309 109.608 25.5891 110.307 26.6045C111.007 27.5849 111.583 28.7407 112.039 30.0708C112.493 31.3671 112.721 32.8728 112.721 34.5877C112.721 36.8292 112.335 38.7197 111.566 40.2605C110.796 41.8012 109.8 43.0624 108.576 44.0427C107.388 44.988 106.041 45.6888 104.538 46.1438C103.069 46.5638 101.599 46.7744 100.131 46.7744C99.4674 46.7744 98.6455 46.7211 97.6665 46.6158C96.7212 46.5469 95.7604 46.4234 94.7814 46.2491C93.8023 46.1087 92.8753 45.9332 92.0014 45.7239C91.1262 45.4781 90.4277 45.1986 89.9031 44.8826C89.7629 44.2533 89.6408 43.6045 89.5356 42.9402C89.4655 42.2745 89.4305 41.5385 89.4305 40.7337C89.4305 40.1733 89.4474 39.4907 89.4824 38.6846C89.5525 37.8798 89.6226 37.0568 89.6928 36.2169C89.7629 35.3756 89.833 34.5708 89.9031 33.7998C90.007 33.0301 90.0953 32.3826 90.1654 31.8573C90.5497 32.0666 91.1094 32.3124 91.843 32.5919C92.5779 32.8376 93.3648 33.0821 94.2036 33.3278C95.0787 33.5723 95.9526 33.7829 96.8264 33.9584C97.7003 34.1326 98.4703 34.2211 99.1351 34.2211C100.253 34.2211 101.093 33.9935 101.653 33.5372C102.212 33.047 102.492 32.3995 102.492 31.5947C102.492 30.7183 102.177 29.9486 101.548 29.2829C100.918 28.5834 100.131 27.8995 99.187 27.2351C98.243 26.5694 97.2108 25.8686 96.0928 25.134C95.0086 24.363 93.9945 23.4711 93.0492 22.4543C92.1053 21.4389 91.3184 20.2492 90.69 18.8827C90.0602 17.4824 89.7447 15.8194 89.7447 13.8938Z" fill="white"/>
<path fill-rule="evenodd" clip-rule="evenodd" d="M68.1112 3.23099L60.3491 46.1959H69.2656L70.5251 37.5821H81.1996L82.511 46.1959H91.3755L83.6654 3.23099H68.1112ZM79.783 28.1804H71.9417L74.7866 15.6023H76.9381L79.783 28.1804Z" fill="#161616"/>
<path fill-rule="evenodd" clip-rule="evenodd" d="M68.1113 0.630516C66.8557 0.630516 65.7806 1.53025 65.556 2.76804L57.7926 45.733C57.6562 46.4923 57.8627 47.2724 58.3561 47.864C58.8495 48.4543 59.5792 48.7962 60.3492 48.7962H69.2656C70.555 48.7962 71.6483 47.8497 71.8353 46.5729L72.7688 40.1824H78.9689L79.944 46.5885C80.1375 47.8588 81.2282 48.7962 82.5111 48.7962H91.3755C92.1455 48.7962 92.8739 48.4556 93.3673 47.864C93.8608 47.2737 94.0672 46.4949 93.9322 45.7369L86.2207 2.77064C85.9987 1.53155 84.9223 0.630516 83.6654 0.630516H68.1113ZM70.281 5.83129H81.4931L88.271 43.5954H84.7418L83.7667 37.1907C83.5732 35.9204 82.4825 34.9817 81.1996 34.9817H70.5251C69.2358 34.9817 68.1425 35.9282 67.9555 37.2063L67.0219 43.5954H63.4577L70.281 5.83129ZM79.783 30.7807C80.5725 30.7807 81.3191 30.4206 81.8125 29.803C82.3046 29.1854 82.4903 28.3767 82.3163 27.6057L79.4701 15.0276C79.2026 13.8431 78.1509 13.0019 76.9381 13.0019H74.7866C73.5739 13.0019 72.5221 13.8431 72.2533 15.0276L69.4085 27.6057C69.2345 28.3767 69.4188 29.1854 69.9123 29.803C70.4044 30.4206 71.151 30.7807 71.9404 30.7807H79.783ZM75.8617 22.6168L75.1917 25.5799H76.533L75.8617 22.6168Z" fill="#161616"/>
<path fill-rule="evenodd" clip-rule="evenodd" d="M68.1112 3.23099L60.3491 46.1959H69.2656L70.5251 37.5821H81.1996L82.511 46.1959H91.3755L83.6654 3.23099H68.1112ZM79.783 28.1804H71.9417L74.7866 15.6023H76.9381L79.783 28.1804Z" fill="white"/>
<path d="M33.4078 46.1959C33.5129 42.87 33.5831 39.561 33.6181 36.2689C33.6532 32.943 33.6701 29.7913 33.6701 26.8152C33.6701 22.5778 33.635 18.5511 33.5649 14.7338C33.5298 10.9164 33.4779 7.08212 33.4078 3.23095C35.1217 3.05542 36.8344 2.915 38.5483 2.81098C40.2973 2.67056 42.0632 2.60035 43.846 2.60035C46.3987 2.60035 51.3913 2.79278 53.6298 3.17764C55.867 3.52869 57.8082 4.21129 59.452 5.22674C61.0959 6.20709 62.3891 7.57229 63.3331 9.32366C64.3121 11.075 64.8029 13.3335 64.8029 16.099C64.8029 19.5315 64.0849 22.2268 62.6514 24.1888C61.253 26.1495 58.0484 27.62 55.6359 28.6003L64.1862 46.1959H54.849L47.8725 30.1762C46.439 30.2815 43.6538 30.3335 42.1152 30.3335C42.1152 33.0301 42.1333 35.6734 42.1671 38.2647C42.2022 40.856 42.3073 43.5005 42.4826 46.1959H33.4078ZM42.1152 22.3503C43.1994 22.4543 44.1966 22.5076 45.1055 22.5076C47.4829 22.5076 50.4603 22.0695 51.4393 21.1944C52.4534 20.2843 52.9611 18.936 52.9611 17.1495C52.9611 16.0639 52.8027 15.1888 52.4885 14.5231C52.208 13.8587 51.8068 13.3335 51.2822 12.9473C50.7927 12.5624 50.198 12.2998 49.4981 12.1594C48.8333 12.0203 48.1166 11.95 47.3479 11.95C46.7883 11.95 44.8601 11.9852 44.1615 12.0554C43.4967 12.0905 42.815 12.1594 42.1152 12.2647V22.3503Z" fill="#161616"/>
<path fill-rule="evenodd" clip-rule="evenodd" d="M30.8122 46.1139C30.7901 46.8173 31.0537 47.4999 31.5432 48.0057C32.0314 48.5115 32.7053 48.7962 33.4077 48.7962H42.4826C43.2006 48.7962 43.8862 48.4985 44.377 47.9745C44.8678 47.4505 45.1197 46.7458 45.0743 46.0281C44.9016 43.377 44.799 40.7779 44.7639 38.2295C44.7406 36.4782 44.725 34.7021 44.7172 32.9027C45.2197 32.891 45.7274 32.8767 46.2091 32.861C46.2078 32.861 52.4689 47.236 52.4689 47.236C52.8805 48.1838 53.8154 48.7962 54.849 48.7962H64.1861C65.0807 48.7962 65.913 48.3346 66.387 47.5753C66.8622 46.816 66.9128 45.8643 66.5207 45.0581L59.1429 29.8745C61.349 28.7797 63.5719 27.3612 64.7548 25.7139C66.4597 23.3762 67.3997 20.1868 67.3997 16.099C67.3997 12.8186 66.7674 10.1506 65.6092 8.07159C64.438 5.90547 62.8292 4.21782 60.7958 3.00214C58.8884 1.82677 56.6434 1.02065 54.0504 0.61239C51.7028 0.211931 46.5065 0 43.8459 0C41.9931 0 40.1584 0.0728107 38.3418 0.218432C36.6253 0.323748 34.8854 0.465469 33.1442 0.643595C31.8003 0.781415 30.7862 1.92558 30.8109 3.27778C30.881 7.12245 30.9329 10.9489 30.968 14.7572C30.968 14.765 30.968 14.7728 30.9693 14.7819C31.0381 18.5836 31.0731 22.5947 31.0731 26.8152C31.0731 29.7822 31.0563 32.9248 31.0212 36.2415C30.9861 39.5154 30.916 42.8062 30.8122 46.1139ZM36.0799 43.5954C36.1436 41.1537 36.189 38.7197 36.2137 36.2962C36.2487 32.9599 36.2669 29.7991 36.2669 26.8152C36.2669 22.5648 36.2319 18.5264 36.1617 14.6974C36.1345 11.6757 36.0955 8.64237 36.0462 5.59733C36.933 5.52451 37.8199 5.46081 38.7067 5.4062C38.7236 5.4049 38.7392 5.4036 38.7547 5.4023C40.4349 5.26838 42.132 5.20077 43.8459 5.20077C46.2844 5.20077 51.0523 5.37369 53.1896 5.74035C53.2025 5.74295 53.2155 5.74555 53.2285 5.74685C55.0944 6.03939 56.7174 6.59327 58.0886 7.4397C58.1003 7.4462 58.1107 7.454 58.1224 7.4605C59.3637 8.20031 60.3349 9.23656 61.0477 10.5589C61.0542 10.5706 61.0607 10.5823 61.0672 10.594C61.8619 12.0138 62.206 13.8561 62.206 16.099C62.206 18.8697 61.7138 21.0696 60.5556 22.6519C60.5504 22.6597 60.544 22.6688 60.5388 22.6766C59.3818 24.2967 56.6538 25.381 54.6594 26.1911C53.9933 26.4615 53.4687 26.9972 53.2103 27.6694C52.9532 28.3416 52.9857 29.0905 53.2999 29.738L60.0337 43.5954H56.5499L50.2525 29.136C49.8123 28.1244 48.7813 27.5017 47.6828 27.5823C46.2961 27.6837 43.6031 27.7331 42.1151 27.7331C40.6803 27.7331 39.5182 28.8981 39.5182 30.3335C39.5182 33.0418 39.5364 35.6968 39.5715 38.2998C39.5948 40.042 39.6494 41.8077 39.7351 43.5954H36.0799ZM39.5182 22.3503C39.5182 23.6895 40.5336 24.809 41.8645 24.9377C43.0396 25.0521 44.1199 25.108 45.1054 25.108C47.031 25.108 49.2942 24.8402 50.8679 24.3448C51.8742 24.0275 52.6624 23.5868 53.1688 23.1343C53.1701 23.133 53.1714 23.1317 53.1727 23.1304C54.6841 21.7743 55.5579 19.811 55.5579 17.1495C55.5579 15.6296 55.2943 14.4074 54.8607 13.4648C54.4114 12.3973 53.7245 11.5262 52.8494 10.8748C52.0703 10.2689 51.1302 9.83725 50.0201 9.61232C49.1942 9.43939 48.3035 9.34968 47.3479 9.34968C46.7571 9.34968 44.7601 9.38999 43.9602 9.4615C43.25 9.5005 42.4995 9.57721 41.7295 9.69293C40.4583 9.88406 39.5182 10.9775 39.5182 12.2647V22.3503ZM49.7617 19.2025C49.65 19.2467 49.1865 19.4288 48.8592 19.5081C47.7439 19.7785 46.3312 19.9072 45.1054 19.9072L44.712 19.9033V14.6194C45.4898 14.5713 46.8986 14.5504 47.3479 14.5504C47.9257 14.5504 48.4645 14.5999 48.9631 14.7052C48.9722 14.7065 48.98 14.7078 48.9891 14.7104C49.2553 14.7637 49.4903 14.8456 49.6773 14.9925C49.6993 15.0107 49.7227 15.0276 49.7461 15.0445C49.9045 15.1615 50.011 15.3319 50.0954 15.5334C50.1096 15.5672 50.1252 15.6023 50.1408 15.6374C50.3213 16.0184 50.3641 16.528 50.3641 17.1495C50.3641 18.0285 50.2343 18.7371 49.7617 19.2025Z" fill="#161616"/>
<path d="M33.4078 46.1959C33.5129 42.87 33.5831 39.561 33.6181 36.2689C33.6532 32.943 33.6701 29.7913 33.6701 26.8152C33.6701 22.5778 33.635 18.5511 33.5649 14.7338C33.5298 10.9164 33.4779 7.08212 33.4078 3.23095C35.1217 3.05542 36.8344 2.915 38.5483 2.81098C40.2973 2.67056 42.0632 2.60035 43.846 2.60035C46.3987 2.60035 51.3913 2.79278 53.6298 3.17764C55.867 3.52869 57.8082 4.21129 59.452 5.22674C61.0959 6.20709 62.3891 7.57229 63.3331 9.32366C64.3121 11.075 64.8029 13.3335 64.8029 16.099C64.8029 19.5315 64.0849 22.2268 62.6514 24.1888C61.253 26.1495 58.0484 27.62 55.6359 28.6003L64.1862 46.1959H54.849L47.8725 30.1762C46.439 30.2815 43.6538 30.3335 42.1152 30.3335C42.1152 33.0301 42.1333 35.6734 42.1671 38.2647C42.2022 40.856 42.3073 43.5005 42.4826 46.1959H33.4078ZM42.1152 22.3503C43.1994 22.4543 44.1966 22.5076 45.1055 22.5076C47.4829 22.5076 50.4603 22.0695 51.4393 21.1944C52.4534 20.2843 52.9611 18.936 52.9611 17.1495C52.9611 16.0639 52.8027 15.1888 52.4885 14.5231C52.208 13.8587 51.8068 13.3335 51.2822 12.9473C50.7927 12.5624 50.198 12.2998 49.4981 12.1594C48.8333 12.0203 48.1166 11.95 47.3479 11.95C46.7883 11.95 44.8601 11.9852 44.1615 12.0554C43.4967 12.0905 42.815 12.1594 42.1152 12.2647V22.3503Z" fill="white"/>
<path d="M25.3742 2.60035C26.8246 2.60035 28.0724 2.68747 29.1202 2.86299C30.207 3.00341 31.2146 3.21274 32.1417 3.49359V5.38407C32.1807 6.04977 32.2014 6.76747 32.2014 7.53719C32.2014 8.3082 32.1807 9.13122 32.1417 10.0063V12.37C30.6109 11.5301 28.7774 11.1088 26.6428 11.1088C24.6289 11.1088 22.937 11.4417 21.5685 12.1074C20.2389 12.738 19.1508 13.561 18.3055 14.5764C17.4991 15.5919 16.9161 16.7127 16.5539 17.9374C16.2306 19.1284 16.0695 20.2661 16.0695 21.3517C16.0695 22.8223 16.3318 24.2057 16.8551 25.5007C17.3784 26.797 18.1042 27.9346 19.03 28.915C19.9973 29.8615 21.1049 30.6143 22.354 31.1747C23.6421 31.7338 25.0314 32.0146 26.522 32.0146C27.2063 32.0146 28.0724 31.9262 29.1202 31.752C30.207 31.5765 31.2146 31.2436 32.1417 30.7534V34.5877C32.1807 35.9191 32.2014 37.2141 32.2014 38.4753C32.2014 39.8054 32.1807 41.1017 32.1417 42.3616V46.1438C29.885 46.5638 27.5894 46.7744 25.2535 46.7744C21.7087 46.7744 18.5275 46.266 15.7073 45.2506C12.9286 44.2351 10.5524 42.7815 8.5788 40.891C6.64542 38.9655 5.1548 36.6537 4.10695 33.9584C3.10066 31.2267 2.59686 28.1804 2.59686 24.8181C2.59686 21.5975 3.07988 18.6382 4.04722 15.9416C5.01327 13.2099 6.44286 10.8644 8.33599 8.90369C10.2694 6.90789 12.6468 5.36716 15.4658 4.2815C18.3249 3.16074 21.6282 2.60035 25.3742 2.60035Z" fill="#161616"/>
<path fill-rule="evenodd" clip-rule="evenodd" d="M25.3742 0C21.2724 0 17.6589 0.630593 14.527 1.85667C11.3393 3.08535 8.65804 4.83541 6.47276 7.09255C6.47146 7.09385 6.47016 7.09515 6.46886 7.09645C4.32383 9.31847 2.69687 11.9735 1.60098 15.0679C0.540154 18.0298 0 21.2789 0 24.8181C0 28.5119 0.564824 31.8573 1.6711 34.8581C1.67629 34.8724 1.68149 34.8867 1.68668 34.901C2.87087 37.9487 4.56144 40.5569 6.74673 42.7347C6.75841 42.7464 6.7701 42.7581 6.78308 42.7698C9.00862 44.9021 11.6834 46.5482 14.8179 47.6936C14.8205 47.6949 14.8244 47.6962 14.8283 47.6975C17.9082 48.8066 21.3815 49.3748 25.2535 49.3748C27.7504 49.3748 30.2045 49.1499 32.6157 48.7C33.8466 48.4712 34.7386 47.3959 34.7386 46.1438L34.7373 42.4019C34.7776 41.1277 34.7984 39.8184 34.7984 38.4753C34.7984 37.1972 34.7776 35.884 34.7373 34.5357C34.7386 34.55 34.7386 30.7534 34.7386 30.7534C34.7386 29.842 34.2608 28.9969 33.4817 28.5262C32.7014 28.0555 31.7327 28.0282 30.9277 28.4547C30.2473 28.8148 29.5072 29.0554 28.7074 29.1841C28.7022 29.1854 28.6983 29.1867 28.6931 29.1867C27.8179 29.3336 27.0947 29.4142 26.5221 29.4142C25.4106 29.4142 24.3718 29.2127 23.4097 28.7979C22.4644 28.3728 21.6295 27.8098 20.8985 27.1064C20.1934 26.3523 19.6546 25.4968 19.2625 24.5255C18.8625 23.5348 18.6665 22.4764 18.6665 21.3517C18.6665 20.4949 18.7976 19.5978 19.0495 18.6578C19.3157 17.7697 19.7338 16.9662 20.3064 16.2342C20.931 15.4918 21.723 14.9106 22.68 14.4581C22.6865 14.4542 22.6942 14.4503 22.702 14.4464C23.7629 13.9316 25.0821 13.7092 26.6428 13.7092C28.2906 13.7092 29.7111 14.0018 30.8926 14.6506C31.6977 15.0913 32.6741 15.0757 33.4649 14.6077C34.2543 14.1396 34.7386 13.2893 34.7386 12.37V10.0648C34.7789 9.16895 34.7984 8.32773 34.7984 7.53721C34.7984 6.73499 34.7776 5.98478 34.7373 5.28918C34.7386 5.30868 34.7386 3.49362 34.7386 3.49362C34.7386 2.34685 33.9881 1.3353 32.8922 1.00375C31.8457 0.687801 30.7109 0.448566 29.4864 0.288643C28.3412 0.100115 26.9674 0 25.3742 0ZM29.55 5.55572C29.5864 6.16941 29.6046 6.82991 29.6046 7.53721C29.6046 7.93247 29.5994 8.34203 29.5877 8.76589C28.6645 8.59557 27.6842 8.50845 26.6428 8.50845C24.1849 8.50845 22.1255 8.95052 20.4518 9.75924C18.7613 10.5615 17.3875 11.6185 16.3111 12.9109C16.2981 12.9265 16.2851 12.9421 16.2721 12.959C15.2554 14.2397 14.5205 15.653 14.0635 17.1989C14.0583 17.2184 14.0518 17.2379 14.0466 17.2574C13.661 18.6851 13.4727 20.0503 13.4727 21.3517C13.4727 23.1681 13.8012 24.8766 14.4478 26.4771C15.097 28.0815 15.9969 29.4883 17.1434 30.7027C17.1681 30.7274 17.1914 30.7521 17.2161 30.7755C18.4016 31.9353 19.7598 32.8597 21.2919 33.5475C21.301 33.5514 21.3101 33.5553 21.3192 33.5592C22.928 34.2588 24.6614 34.615 26.5221 34.615C27.318 34.615 28.3256 34.5214 29.5423 34.3173H29.5436L29.5449 34.667C29.5851 35.9698 29.6046 37.2401 29.6046 38.4753C29.6046 39.7768 29.5851 41.0457 29.5461 42.2783L29.5449 43.914C28.1308 44.0869 26.7 44.174 25.2535 44.174C22.0385 44.174 19.1508 43.7267 16.5928 42.8062C14.1855 41.926 12.1197 40.6765 10.4045 39.0422C8.72816 37.3675 7.44919 35.373 6.54287 33.0535C5.63266 30.5792 5.19379 27.8384 5.19379 24.8181C5.19379 21.916 5.61968 19.2493 6.49093 16.8206C6.49223 16.8167 6.49353 16.8141 6.49483 16.8102C7.33103 14.4451 8.56325 12.4103 10.2019 10.7123C11.8808 8.97912 13.9505 7.65033 16.3981 6.70899C16.402 6.70639 16.4072 6.70509 16.4124 6.70249C18.9976 5.68964 21.9866 5.20077 25.3742 5.20077C26.6584 5.20077 27.7647 5.27228 28.6931 5.4283C28.7242 5.4335 28.7567 5.4374 28.7892 5.4426C29.0475 5.47511 29.3007 5.51281 29.55 5.55572Z" fill="#161616"/>
<path d="M25.3742 2.60035C26.8246 2.60035 28.0724 2.68747 29.1202 2.86299C30.207 3.00341 31.2146 3.21274 32.1417 3.49359V5.38407C32.1807 6.04977 32.2014 6.76747 32.2014 7.53719C32.2014 8.3082 32.1807 9.13122 32.1417 10.0063V12.37C30.6109 11.5301 28.7774 11.1088 26.6428 11.1088C24.6289 11.1088 22.937 11.4417 21.5685 12.1074C20.2389 12.738 19.1508 13.561 18.3055 14.5764C17.4991 15.5919 16.9161 16.7127 16.5539 17.9374C16.2306 19.1284 16.0695 20.2661 16.0695 21.3517C16.0695 22.8223 16.3318 24.2057 16.8551 25.5007C17.3784 26.797 18.1042 27.9346 19.03 28.915C19.9973 29.8615 21.1049 30.6143 22.354 31.1747C23.6421 31.7338 25.0314 32.0146 26.522 32.0146C27.2063 32.0146 28.0724 31.9262 29.1202 31.752C30.207 31.5765 31.2146 31.2436 32.1417 30.7534V34.5877C32.1807 35.9191 32.2014 37.2141 32.2014 38.4753C32.2014 39.8054 32.1807 41.1017 32.1417 42.3616V46.1438C29.885 46.5638 27.5894 46.7744 25.2535 46.7744C21.7087 46.7744 18.5275 46.266 15.7073 45.2506C12.9286 44.2351 10.5524 42.7815 8.5788 40.891C6.64542 38.9655 5.1548 36.6537 4.10695 33.9584C3.10066 31.2267 2.59686 28.1804 2.59686 24.8181C2.59686 21.5975 3.07988 18.6382 4.04722 15.9416C5.01327 13.2099 6.44286 10.8644 8.33599 8.90369C10.2694 6.90789 12.6468 5.36716 15.4658 4.2815C18.3249 3.16074 21.6282 2.60035 25.3742 2.60035Z" fill="white"/>
</svg>
