<svg width="85" height="54" viewBox="0 0 85 54" fill="none" xmlns="http://www.w3.org/2000/svg">
<path d="M20.088 31.32C20.088 34.704 19.422 37.152 18.09 38.664C16.758 40.176 13.572 40.932 8.532 40.932C6.228 40.932 4.482 40.806 3.294 40.554C2.142 40.302 1.44 40.032 1.188 39.744C0.936 39.42 0.81 38.97 0.81 38.394L0.918 37.584C1.746 33.12 2.16 27.054 2.16 19.386L1.944 10.206C1.872 8.91 1.458 7.74 0.702 6.696C0.234 6.228 0 5.742 0 5.238C0 4.05 1.08 2.88 3.24 1.728C5.436 0.576 7.146 0 8.37 0C9.594 0 10.206 0.504 10.206 1.512C9.738 5.112 9.45 8.406 9.342 11.394C9.27 14.346 9.234 17.73 9.234 21.546C9.234 25.326 9.252 27.612 9.288 28.404C9.324 29.196 9.342 29.628 9.342 29.7C9.378 29.772 9.432 29.898 9.504 30.078C9.612 30.258 9.756 30.42 9.936 30.564C10.368 30.888 11.034 31.05 11.934 31.05C13.914 31.05 15.498 30.366 16.686 28.998C17.262 28.422 17.838 28.134 18.414 28.134C19.53 28.134 20.088 29.196 20.088 31.32Z" fill="#161616"/>
<path d="M31.1618 13.122C34.2938 13.122 36.6698 14.49 38.2898 17.226C39.9458 19.962 40.7738 23.31 40.7738 27.27C40.7738 32.49 39.2798 36.45 36.2918 39.15C34.6358 40.626 32.7998 41.364 30.7838 41.364C28.7678 41.364 27.0938 40.95 25.7618 40.122C24.4658 39.294 23.4758 38.196 22.7918 36.828C21.3878 34.164 20.6858 31.32 20.6858 28.296C20.6858 24.768 21.4958 21.456 23.1158 18.36C23.9078 16.812 25.0058 15.552 26.4098 14.58C27.8138 13.608 29.3978 13.122 31.1618 13.122ZM34.2938 24.624C34.2938 23.544 34.0778 22.572 33.6458 21.708C33.2138 20.844 32.4938 20.412 31.4858 20.412C30.5138 20.412 29.5598 21.114 28.6238 22.518C27.7238 23.886 27.2738 25.56 27.2738 27.54C27.2738 30.312 28.1918 31.698 30.0278 31.698C31.0358 31.698 31.9898 31.068 32.8898 29.808C33.8258 28.548 34.2938 26.82 34.2938 24.624Z" fill="#161616"/>
<path d="M63.215 13.77C62.567 19.602 62.243 25.542 62.243 31.59C62.243 37.602 61.919 41.922 61.271 44.55C60.659 47.178 59.435 49.338 57.599 51.03C55.799 52.722 53.639 53.568 51.119 53.568C49.643 53.568 48.365 53.154 47.285 52.326C46.205 51.534 45.665 50.418 45.665 48.978C45.665 48.078 45.899 47.358 46.367 46.818C46.871 46.314 47.375 46.008 47.879 45.9L48.635 45.792C49.931 45.72 51.011 45.378 51.875 44.766C52.775 44.154 53.405 43.398 53.765 42.498C54.341 41.058 54.629 39.672 54.629 38.34V37.908C54.593 37.656 54.467 37.53 54.251 37.53L53.711 37.8C53.243 38.484 52.649 39.024 51.929 39.42C51.245 39.78 50.651 39.996 50.147 40.068L49.445 40.122C47.897 40.122 46.583 39.726 45.503 38.934C44.423 38.106 43.667 37.044 43.235 35.748C42.479 33.48 42.101 31.374 42.101 29.43C42.101 27.486 42.281 25.668 42.641 23.976C43.001 22.248 43.559 20.574 44.315 18.954C45.107 17.334 46.223 16.02 47.663 15.012C49.103 14.004 50.615 13.5 52.199 13.5C53.783 13.5 54.989 13.86 55.817 14.58C55.925 14.796 56.087 14.904 56.303 14.904C56.519 14.904 56.699 14.796 56.843 14.58C58.175 12.888 59.741 12.042 61.541 12.042C62.657 12.042 63.215 12.618 63.215 13.77ZM52.577 30.942C53.477 30.942 54.197 30.474 54.737 29.538C55.313 28.602 55.583 27.342 55.547 25.758C55.547 24.174 55.223 22.806 54.575 21.654C53.963 20.502 53.225 19.926 52.361 19.926C51.497 19.926 50.777 20.412 50.201 21.384C49.661 22.32 49.391 23.562 49.391 25.11C49.391 26.622 49.697 27.972 50.309 29.16C50.957 30.348 51.713 30.942 52.577 30.942Z" fill="#161616"/>
<path d="M74.8786 13.122C78.0106 13.122 80.3866 14.49 82.0066 17.226C83.6626 19.962 84.4906 23.31 84.4906 27.27C84.4906 32.49 82.9966 36.45 80.0086 39.15C78.3526 40.626 76.5166 41.364 74.5006 41.364C72.4846 41.364 70.8106 40.95 69.4786 40.122C68.1826 39.294 67.1926 38.196 66.5086 36.828C65.1046 34.164 64.4026 31.32 64.4026 28.296C64.4026 24.768 65.2126 21.456 66.8326 18.36C67.6246 16.812 68.7226 15.552 70.1266 14.58C71.5306 13.608 73.1146 13.122 74.8786 13.122ZM78.0106 24.624C78.0106 23.544 77.7946 22.572 77.3626 21.708C76.9306 20.844 76.2106 20.412 75.2026 20.412C74.2306 20.412 73.2766 21.114 72.3406 22.518C71.4406 23.886 70.9906 25.56 70.9906 27.54C70.9906 30.312 71.9086 31.698 73.7446 31.698C74.7526 31.698 75.7066 31.068 76.6066 29.808C77.5426 28.548 78.0106 26.82 78.0106 24.624Z" fill="#161616"/>
</svg>
