<svg xmlns="http://www.w3.org/2000/svg" viewBox="0 0 721 117.11"><g fill="#fff"><path d="M717.09 34.95c-2.62-7.7-6.58-14.25-11.9-19.63-5.85-5.76-12.63-9.75-20.36-11.97C677.11 1.12 668.66 0 659.47 0c-3.87 0-8.5.19-13.94.56-5.42.28-11.11.79-17.06 1.53.1 2.11.19 4.29.28 6.54 1.47 1.79 2.78 3.74 3.94 5.88 1.42 2.56 2.54 5.48 3.33 8.72.92 3.73 1.41 7.91 1.41 12.56 0 4.16-.37 7.97-1.07 11.43-1.14 5.56-3.15 10.24-5.94 14.06-.26.37-.56.73-.86 1.1 0 1.49.01 2.96.01 4.46v12.39c0 4-.06 7.99-.16 11.98 0 3.08-.04 6.23-.11 9.42l5.8 11.93c.56 1.14.77 2.39.66 3.61 3.91.32 7.6.54 11.03.66 5.42.19 9.34.28 11.74.28 10.65 0 19.88-1.39 27.71-4.18 7.83-2.78 14.31-6.68 19.42-11.7 5.21-5.01 9.08-11.04 11.58-18.09 2.51-7.06 3.76-14.91 3.76-23.54s-1.3-17.03-3.91-24.65Zm-32.88 26.88c-1.36 3.43-3.29 6.45-5.8 9.05-2.39 2.51-5.27 4.5-8.61 5.99-3.23 1.48-6.78 2.23-10.64 2.23h-2.51c-.94-.1-1.88-.24-2.82-.42 0-2.23-.05-4.6-.15-7.1-.11-2.6-.21-5.16-.32-7.66 0-2.6-.05-5.11-.15-7.52V36.63c0-4.37.05-8.73.15-13.09.84-.1 1.67-.19 2.51-.28.94-.09 1.93-.14 2.97-.14 5.22 0 9.56.93 13 2.78 3.55 1.77 6.37 3.99 8.45 6.69 2.19 2.69 3.71 5.7 4.54 9.05.94 3.25 1.41 6.31 1.41 9.19 0 3.9-.68 7.56-2.03 11Z"/><path d="M606.25 68.93c5.35-2.17 12.16-5.26 16.42-9.26.83-.78 1.57-1.59 2.18-2.43 2.15-2.96 3.68-6.56 4.61-10.77.71-3.2 1.09-6.75 1.09-10.68 0-4.37-.47-8.25-1.4-11.67-.62-2.31-1.45-4.42-2.5-6.29-1.31-2.43-2.88-4.58-4.7-6.45-1.65-1.7-3.51-3.18-5.59-4.41-4.35-2.7-9.5-4.51-15.43-5.44C594.99.51 581.76 0 574.99 0c-4.73 0-9.41.19-14.04.56-4.55.28-9.09.65-13.63 1.11.07 3.84.13 7.67.18 11.5 3.11 5.26 5.5 11.56 7.12 18.89 1.65 7.47 2.51 15.97 2.51 25.59s-.79 17.85-2.31 25.29c-1.6 7.81-4 14.55-7.17 20.19-.09 4.14-.2 8.29-.33 12.45h24.06c-.47-7.15-.75-14.16-.84-21.03-.09-6.87-.14-13.88-.14-21.02 4.08 0 11.47-.14 15.27-.42l18.49 42.47h24.75l-6.52-13.43-16.14-33.22ZM595.12 49.3c-2.59 2.32-10.49 3.48-16.79 3.48-2.41 0-5.05-.14-7.93-.42V25.62c1.86-.28 3.67-.46 5.43-.55 1.85-.19 6.96-.28 8.45-.28 2.03 0 3.94.19 5.7.55 1.85.38 3.43 1.07 4.72 2.09 1.4 1.03 2.46 2.42 3.2 4.18.84 1.77 1.25 4.09 1.25 6.96 0 4.74-1.34 8.31-4.03 10.73Z"/><path d="M550.25 57.65c0-9.44-.84-17.75-2.51-24.93-1.59-6.88-3.96-12.72-7.09-17.53-.09-.14-.18-.29-.27-.43C533.79 4.92 523.6 0 509.78 0c-11.65 0-20.72 3.49-27.23 10.43l-2.86 19.18-3.39 22.79-4.58 30.75c1.57 7.27 4.02 13.43 7.33 18.51 3.34 5.01 7.55 8.86 12.66 11.55 5.09 2.6 11.12 3.9 18.07 3.9 14.09 0 24.34-5.15 30.73-15.45.1-.16.19-.33.29-.49 3.19-5.2 5.57-11.48 7.14-18.85 1.54-7.19 2.31-15.41 2.31-24.67Zm-23.64 7.52c-.74 3.25-1.85 6.08-3.34 8.5a17.111 17.111 0 0 1-5.7 5.56c-2.22 1.3-4.82 1.95-7.79 1.95s-5.56-.65-7.79-1.95c-2.13-1.39-3.98-3.24-5.56-5.56-1.48-2.42-2.59-5.25-3.33-8.5-.75-3.34-1.12-7.01-1.12-11s.37-7.52 1.12-10.86c.74-3.44 1.85-6.4 3.33-8.91 1.58-2.51 3.43-4.46 5.56-5.85 2.23-1.49 4.83-2.23 7.79-2.23s5.57.7 7.79 2.09c2.32 1.39 4.22 3.34 5.7 5.85 1.49 2.5 2.6 5.48 3.34 8.91.74 3.34 1.11 7.01 1.11 11s-.37 7.66-1.11 11ZM476.04 7.38l.85-5.71h-23.08l-8.48 77.84-15.72-77.7-17.79.84-15.86 76.86-8.76-77.84h-16.59V2c-.28 5.8-.51 11.27-.69 16.43-.1 5.18-.19 10.31-.28 15.4l-.06 3.36 12.06 78.39h26.7l12.09-60.99 12.1 60.99h27.4l4.8-32.25 4.71-31.6 3.49-23.41 3.11-20.94ZM340.23 21.31c.09 3.16.14 6.5.14 10.03v15H312.9c.09-6.68.23-16.72.42-23.22.18-6.59.46-13.74.83-21.45h-19.44c.02.15.05.3.06.45.2 2.49.34 4.84.43 7.04.1 2.13.15 4.6.15 7.41s-.05 5.47-.14 8.06c-.1 2.53-.25 4.95-.44 7.28a6.948 6.948 0 0 1-2.52 4.78c-.45.36-.95.66-1.46.9v21.55c.13.19.27.35.39.54 2.2 3.09 4.03 6.72 5.46 10.9.4 1.13.74 2.32 1.03 3.55.76 3.22 1.16 6.77 1.16 10.67 0 4.36-.5 8.29-1.44 11.82a33.21 33.21 0 0 1-2.35 6.31c-1.38 2.76-3 5.23-4.83 7.44l-.12 5.21h23.09c-.09-7.52-.19-14.39-.28-20.61V73.84h27.47c-.1 7.8-.19 18.21-.28 24.33-.09 6.04-.23 11.84-.42 17.41h23.08c-.09-10.4-.18-19.64-.27-27.71V49.02c.07-3.85.13-7.62.2-11.37.03-1.32.05-2.64.07-3.95.1-5.1.19-10.26.28-15.46.19-5.19.42-10.72.7-16.57h-23.5v19.64Z"/><path d="M291.95 84.8c0-3.61-.4-6.86-1.17-9.78-.19-.75-.4-1.49-.64-2.19-1.21-3.53-2.74-6.59-4.59-9.19-.53-.77-1.08-1.49-1.65-2.18-1.42-1.76-2.95-3.32-4.61-4.65-2.23-1.94-4.45-3.71-6.68-5.29-1.39-.92-2.78-1.9-4.17-2.92-1.3-1.02-2.5-2.09-3.61-3.2a17.453 17.453 0 0 1-2.51-3.48c-.65-1.3-.97-2.65-.97-4.04 0-2.42 1.02-4.32 3.06-5.71 2.04-1.39 5.28-2.09 9.73-2.09 1.12 0 2.28.05 3.48.14 1.3.09 2.55.18 3.75.28.88.06 1.71.15 2.5.26.38.05.76.1 1.12.15 1.2.19 2.18.33 2.92.42.19-2.22.32-4.54.42-6.96.09-2.51.14-5.11.14-7.8s-.05-5.05-.14-7.1c-.1-2.13-.23-4.41-.42-6.82-1.3-.41-2.7-.72-4.14-.98-.52-.09-1.02-.2-1.56-.27-1.95-.38-3.89-.66-5.84-.84a119 119 0 0 0-5.42-.42c-1.67-.09-3.06-.14-4.18-.14-3.89 0-7.97.47-12.23 1.4-4.17.83-8.02 2.41-11.54 4.73-3.44 2.23-6.31 5.29-8.63 9.19-2.22 3.81-3.34 8.68-3.34 14.62 0 5.11.84 9.52 2.51 13.23 1.67 3.62 3.75 6.78 6.25 9.47 2.51 2.69 5.2 5.06 8.07 7.1 2.97 1.95 5.7 3.81 8.21 5.57 2.5 1.76 4.58 3.58 6.25 5.43 1.67 1.76 2.51 3.81 2.51 6.13 0 2.13-.75 3.85-2.23 5.15-1.48 1.21-3.71 1.81-6.67 1.81-1.76 0-3.81-.23-6.12-.69a97.69 97.69 0 0 1-6.96-1.68c-2.22-.65-4.31-1.3-6.25-1.95-.28-.1-.52-.2-.77-.3l1.91 10.67 3.28 18.25 1.11 6.23c.06.33.09.67.1 1 .72.12 1.42.25 2.16.36 2.59.46 5.14.79 7.64.97 2.6.28 4.78.42 6.54.42 3.89 0 7.79-.56 11.68-1.67 3.99-1.21 7.56-3.06 10.71-5.57.85-.68 1.66-1.42 2.43-2.21 2.15-2.2 3.99-4.81 5.49-7.82.66-1.31 1.2-2.74 1.65-4.24.93-3.18 1.42-6.77 1.42-10.8ZM230.8 90.21l-3.19-17.82-12.69-70.72h-41.24l-3.65 20.21c1.15 4.06 1.77 8.69 1.77 13.91 0 10.84-2.5 19.29-7.02 25.49-.66.93-1.46 1.83-2.36 2.7l-4.48 24.85 5.1 10.5 4.54 9.35 1.88 3.88c.47.96.69 1.99.69 3.02h6.59l3.34-22.84h28.3l3.48 22.84h23.5l-.34-1.89-4.22-23.48Zm-46.96-22.39 7.54-33.35h5.7l7.54 33.35h-20.78Z"/><path d="m150.76 89.82-10.15-20.89c4.96-2.01 11.17-4.81 15.44-8.39 1.24-1.04 2.32-2.14 3.16-3.3 3.8-5.21 5.7-12.35 5.7-21.45 0-5.17-.66-9.66-1.95-13.49-.54-1.6-1.18-3.1-1.95-4.47-2.5-4.65-5.93-8.27-10.28-10.86-4.36-2.7-9.51-4.51-15.44-5.44C129.36.51 116.12 0 109.35 0c-4.72 0-9.41.19-14.04.56-3.4.21-6.79.48-10.18.8.05.33.08.67.08 1.01v4.76c.1 1.85.16 3.83.16 5.96s-.05 4.33-.16 6.7v6.11a6.91 6.91 0 0 1-3.12 5.76c0 .17.01.34.01.51.18 10.12.28 20.79.28 32.03 0 1.6-.01 3.24-.01 4.88a6.874 6.874 0 0 1 2.84 5.56v10.03c.1 3.57.16 7.05.16 10.44 0 3.56-.06 7.03-.16 10.41v9.92s-.01.09-.01.14h20.54c-.47-7.15-.74-14.16-.84-21.03-.09-6.87-.14-13.88-.14-21.02 4.08 0 11.47-.14 15.27-.42l18.49 42.47h24.76l-7.42-15.26-5.1-10.5ZM129.48 49.3c-2.59 2.32-10.49 3.48-16.79 3.48-2.41 0-5.05-.14-7.93-.42V25.62c1.86-.28 3.67-.46 5.43-.55 1.85-.19 6.96-.28 8.45-.28 2.03 0 3.93.19 5.7.55 1.85.38 3.43 1.07 4.73 2.09 1.39 1.03 2.45 2.42 3.19 4.18.84 1.77 1.26 4.09 1.26 6.96 0 4.74-1.35 8.31-4.04 10.73ZM41.64 31.75c2.24-2.69 5.13-4.87 8.65-6.54 3.63-1.77 8.12-2.65 13.46-2.65 4.24 0 8.03.63 11.37 1.88 1.12.42 2.19.91 3.2 1.46v-6.26c.11-2.32.16-4.51.16-6.55s-.05-3.94-.16-5.71V2.37c-1.12-.34-2.3-.64-3.51-.9-1.44-.31-2.94-.57-4.5-.77-2.77-.47-6.08-.7-9.93-.7-9.93 0-18.69 1.49-26.26 4.46-7.48 2.88-13.78 6.96-18.91 12.25-5.02 5.2-8.81 11.42-11.37 18.66C1.28 42.52 0 50.37 0 58.9s1.33 16.99 4 24.24c2.78 7.14 6.73 13.27 11.86 18.37 5.23 5.02 11.53 8.87 18.9 11.56 7.47 2.69 15.91 4.04 25.3 4.04 4.99 0 9.9-.38 14.75-1.1 1.18-.18 2.35-.35 3.51-.57v-10.03c.11-3.34.16-6.77.16-10.3 0-3.34-.05-6.78-.16-10.31V74.64c-.92.49-1.88.9-2.86 1.27-1.64.61-3.35 1.09-5.15 1.38-2.77.46-5.07.69-6.88.69-3.96 0-7.64-.74-11.05-2.22a30.217 30.217 0 0 1-8.82-6c-2.45-2.59-4.37-5.61-5.76-9.05-1.39-3.43-2.08-7.1-2.08-11 0-2.87.42-5.89 1.28-9.05.96-3.24 2.51-6.22 4.64-8.91Z"/></g></svg>